<svg xmlns="http://www.w3.org/2000/svg" viewBox="0 0 203.76446 70.555558"><g id="text"><path d="M75.59175693 27.88860815q.2907715 0 .5400042.2492327.2492327.2492327.2492327.5400042 0 .33231028-.2492327.581543-.20769392.2076939-.5400042.2076939h-4.5692663v14.78780978q0 1.82770652.62308177 2.4507883.66462055.58154297 1.66155138.58154297.16615514 0 .45692663-.08307757.3323103-.08307757.5400042-.08307757.2907715 0 .4984655.2492327.2076939.20769393.2076939.49846542 0 .37384907-.4984654.66462056-.4984654.2492327-1.1630859.2492327-1.0384696 0-1.7446289-.12461635-.7061593-.1661552-1.4953962-1.1215472-.7476981-.9969309-.7476981-3.1984864V29.4670819H65.954759q-.29077148 0-.5400042-.2492327-.2492327-.24923272-.2492327-.5400042 0-.33231028.20769393-.5400042.2492327-.2492327.581543-.2492327h3.4061804v-5.2754256q0-.33231027.2492327-.58154298.2492327-.2492327.581543-.2492327.37384904 0 .58154296.2492327.2492327.2492327.2492327.58154298v5.27542565h4.5692663zm11.70311917-.08307757q3.5723355 0 5.48311958 2.28463315 1.9107841 2.24309437 1.9107841 5.73235145v12.12932837q0 .33231028-.24923272.581543-.2492327.2492327-.58154298.2492327-.37384906 0-.62308177-.2492327-.2076939-.24923272-.2076939-.581543V35.82251518q0-2.86617532-1.4123187-4.65234305-1.4123186-1.78616774-4.3200336-1.78616774-1.7861677 0-3.5307966.8723144-1.7030901.8723144-2.7830985 2.3677107-1.0800084 1.4953954-1.0800084 3.1984856v12.1293284q0 .3323103-.2492327.581543-.2492327.2492327-.581543.2492327-.373849 0-.6230817-.2492327-.2076939-.2492327-.2076939-.581543V18.8746919q0-.3323103.2492327-.581543.2492328-.2492327.581543-.2492327.3738491 0 .581543.2492327.2492327.2492327.2492327.581543v13.1262559q1.163086-1.82770652 3.1984864-2.9907925 2.0769393-1.20462474 4.1954173-1.20462474zm13.20240766 20.14631297q0 .33231028-.2492327.581543-.24923272.2492327-.581543.2492327-.37384906 0-.62308176-.2492327-.20769393-.24923272-.20769393-.581543V28.22091842q0-.33231027.2492327-.58154298.24923272-.2492327.581543-.2492327.37384906 0 .58154298.2492327.2492327.2492327.2492327.58154298v19.73092513zM98.91880994 26.1024404q-.20769392 0-.33231027-.12461635-.12461636-.16615513-.12461636-.37384906t.207694-.5400042l2.5754047-3.863107q.3738491-.6646206 1.0800084-.6646206.4569267 0 .7476981.2907715.3323103.2492327.3323103.7476981 0 .3323102-.2907715.7061593l-3.1154088 3.1984864q-.6230817.6230818-1.0800084.6230818zm14.68028074 1.28770233q1.78616774 0 3.44771912.41538785 1.70309017.41538784 2.700021 1.12154718 1.0384696.66462055 1.0384696 1.41231868 0 .33231027-.2492327.58154298-.20769392.2492327-.5400042.2492327-.37384906 0-.58154298-.12461635-.16615514-.12461635-.4984654-.45692663-.5400042-.62308177-1.1215472-.91385326-1.49539624-.70615934-4.23695603-.70615934-2.3677108 0-4.4031112 1.24616354-1.9938617 1.24616354-3.1984864 3.40617952-1.163086 2.118478-1.163086 4.65234715 0 2.6584822 1.0800084 4.818499 1.1215472 2.11847802 3.1154088 3.32310277 2.0354004 1.20462476 4.5692663 1.20462476 1.6615513 0 2.6169434-.2907715.955392-.2907715 1.9107841-.8307757.6646205-.41538783 1.1630859-.91385325.2076939-.20769392.4153878-.33231027.2076939-.16615514.4153878-.16615514.3323103 0 .4984654.20769392.2076939.20769392.2076939.5400042 0 .58154298-.955392 1.41231868-.9553921.7892369-2.65848227 1.3707799-1.66155138.58154297-3.7384906.58154297-2.9907925 0-5.3585032-1.4123187-2.32617195-1.4123187-3.65541306-3.9046458-1.2877023-2.4923271-1.2877023-5.6077359 0-2.9077182 1.28770234-5.4000445 1.3292411-2.4923271 3.69695183-3.9877234 2.4092495-1.4953963 5.4831196-1.4953963zm18.6095881.41538785q3.57233547 0 5.48311956 2.28463315 1.9107841 2.24309437 1.9107841 5.73235145v12.12932837q0 .33231028-.24923272.581543-.2492327.2492327-.58154298.2492327-.37384906 0-.62308177-.2492327-.20769392-.24923272-.20769392-.581543V35.82251518q0-2.86617532-1.41231868-4.65234305-1.41231868-1.78616774-4.3200336-1.78616774-1.78616773 0-3.5307967.8723144-1.70309015.8723144-2.78309855 2.3677107-1.0800084 1.4953954-1.0800084 3.1984856v12.1293284q0 .3323103-.2492327.581543-.24923272.2492327-.581543.2492327-.37384906 0-.62308176-.2492327-.20769393-.2492327-.20769393-.581543V18.8746919q0-.3323103.2492327-.581543.24923272-.2492327.581543-.2492327.37384906 0 .58154298.2492327.2492328.2492327.2492328.581543v13.1262559q1.163086-1.82770652 3.1984864-2.9907925 2.0769393-1.20462474 4.1954173-1.20462474z" style="-inkscape-font-specification:'Quicksand Light'" font-family="Quicksand" letter-spacing="-3.38666677"/><path d="M162.83933764 26.28139734h-1.99386166V48.8784937h-2.90771492l-.2492327-2.07693923q-1.3707799 1.28770233-3.03233128 1.9107841-1.6200126.58154298-3.82156818.58154298-4.3200336 0-6.60466675-2.36771072-2.28463315-2.4092495-2.28463315-7.60159758 0-5.19234562 2.4092495-7.85082783 2.4092495-2.700021 6.68774432-2.700021 1.9107841 0 3.44771912.45692663 1.53693503.45692663 2.9492537 1.41231867v-4.36157238h-7.68467514v-2.700021h7.68467515v-2.700021h3.40618033v2.700021h1.99386166v2.700021zm-5.400042 7.18620974q-2.20155558-1.95232288-5.6492747-1.95232288-3.32310276 0-4.90157658 1.9107841-1.53693503 1.8692453-1.53693503 5.89850495 0 3.86310697 1.45385746 5.56619713 1.4538574 1.6615514 4.9015765 1.6615514 3.5307967 0 5.7323523-2.36771073V33.46760708zm17.50826246-4.69388266q9.84469194 0 9.84469194 10.26007734 0 5.1092705-2.4092495 7.68467515-2.36771072 2.5754047-7.43544244 2.5754047t-7.47698123-2.5754046q-2.36771072-2.5754046-2.36771072-7.6846751 0-10.2600773 9.84469195-10.2600773zm0 17.6124422q3.4892579 0 4.94311536-1.74462894 1.49539625-1.74462896 1.49539625-5.60773592 0-3.86310452-1.4953962-5.60773347-1.4953962-1.744629-4.9431153-1.744629-3.4477191 0-4.9431153 1.7446289-1.4953962 1.7446289-1.4953962 5.6077334 0 3.8631069 1.4538575 5.6077359 1.49539627 1.7446289 4.98465418 1.7446289zm-1.6615514 6.10620134h3.32310278v3.19848642h-3.32310277v-3.19848642zm30.4443558-4.2784948q-2.61694343 1.0800084-6.06466255 1.0800084-5.06773172 0-7.60159758-2.61694344-2.53386586-2.6584822-2.53386586-7.64313636 0-5.06772927 2.7415598-7.6431339 2.7830986-2.61694344 7.6846752-2.61694344 1.8692453 0 3.1569477.2907715 1.2877023.2492327 2.5754047.83077568v2.700021q-2.2430943-1.0800084-5.1092705-1.0800084-3.7800294 0-5.7323523 1.78616774-1.9107841 1.78616773-1.9107841 5.73234982 0 3.94618453 1.744629 5.73235227 1.744629 1.78616774 5.7738911 1.78616774 2.8661761 0 5.2754256-1.0800084v2.74155978z" style="-inkscape-font-specification:'Kanit Light'" font-family="Kanit" letter-spacing=".04325238"/></g><g id="icon"><path fill="#f14f4a" d="M31.40114377.46195793a5.07973308 5.0944595 0 0 0-2.66377903.66317352L2.77071566 15.92709585A5.07973308 5.0944595 0 0 0 .2017742 20.32106863L.0001146 50.27513737a5.07973308 5.0944595 0 0 0 2.50953957 4.428465L28.274641 69.85570672a5.07973308 5.0944595 0 0 0 5.07952417.03449224l25.9666491-14.80196708a5.07973308 5.0944595 0 0 0 2.5689441-4.39397276l.2016596-29.95406876a5.07973308 5.0944595 0 0 0-2.50954223-4.428465L33.81688892 1.15962103a5.07973308 5.0944595 0 0 0-2.41574515-.6976631z"/><path fill="none" stroke="#fff" stroke-width="2.24539" d="M17.58359447 42.6752086l-.0000032-24.4275622 13.6473272 7.33973842 13.41795777-6.76632124-.1146847 27.63869893-25.2303488-.1146815c-2.71603866 2.1214155-2.1657137 4.2668662-.2293662 6.4222703h25.459715" stroke-linecap="round" stroke-linejoin="round"/><path fill="#fff" fill-rule="evenodd" d="M21.59042882 48.89812708v9.96380605l2.84535368-2.8453569 2.88585725 2.88585726V48.8778769z"/></g></svg>