<?xml version="1.0" encoding="UTF-8" standalone="no"?>
<!-- Created with Inkscape (http://www.inkscape.org/) -->

<svg
   xmlns:dc="http://purl.org/dc/elements/1.1/"
   xmlns:cc="http://creativecommons.org/ns#"
   xmlns:rdf="http://www.w3.org/1999/02/22-rdf-syntax-ns#"
   xmlns:svg="http://www.w3.org/2000/svg"
   xmlns="http://www.w3.org/2000/svg"
   xmlns:sodipodi="http://sodipodi.sourceforge.net/DTD/sodipodi-0.dtd"
   xmlns:inkscape="http://www.inkscape.org/namespaces/inkscape"
   width="722"
   height="250"
   viewBox="0 0 203.76446 70.555558"
   id="svg3352"
   version="1.1"
   inkscape:version="0.91 r13725"
   sodipodi:docname="logo-text.svg">
  <defs
     id="defs3354" />
  <sodipodi:namedview
     inkscape:document-units="mm"
     pagecolor="#ffffff"
     bordercolor="#666666"
     borderopacity="1.0"
     inkscape:pageopacity="0.0"
     inkscape:pageshadow="2"
     inkscape:zoom="0.61399264"
     inkscape:cx="315.26762"
     inkscape:cy="154.70868"
     inkscape:current-layer="layer1"
     id="namedview3356"
     showgrid="false"
     inkscape:window-width="1366"
     inkscape:window-height="681"
     inkscape:window-x="0"
     inkscape:window-y="24"
     inkscape:window-maximized="1"
     fit-margin-top="0"
     fit-margin-left="0"
     fit-margin-right="0"
     fit-margin-bottom="0"
     units="px"
     showguides="false" />
  <metadata
     id="metadata3358">
    <rdf:RDF>
      <cc:Work
         rdf:about="">
        <dc:format>image/svg+xml</dc:format>
        <dc:type
           rdf:resource="http://purl.org/dc/dcmitype/StillImage" />
        <dc:title></dc:title>
      </cc:Work>
    </rdf:RDF>
  </metadata>
  <g
     inkscape:label="icon"
     inkscape:groupmode="layer"
     id="layer1"
     transform="translate(-29.456363,-71.469252)">
    <g
       id="g3493"
       transform="matrix(0.81769261,0,0,0.81769261,5.2144292,29.274849)">
      <g
         id="g3536"
         transform="translate(-1.8386033,-3.6772066)">
        <g
           style="font-style:normal;font-weight:normal;font-size:50.79999924px;line-height:125%;font-family:sans-serif;letter-spacing:-0.04325087px;word-spacing:0px;fill:#000000;fill-opacity:1;stroke:none;stroke-width:1px;stroke-linecap:butt;stroke-linejoin:miter;stroke-opacity:1"
           id="text3476">
          <path
             d="m 123.93056,89.385467 q 0.3556,0 0.6604,0.3048 0.3048,0.3048 0.3048,0.6604 0,0.4064 -0.3048,0.7112 -0.254,0.254 -0.6604,0.254 l -5.588,0 0,18.084803 q 0,2.2352 0.762,2.9972 0.8128,0.7112 2.032,0.7112 0.2032,0 0.5588,-0.1016 0.4064,-0.1016 0.6604,-0.1016 0.3556,0 0.6096,0.3048 0.254,0.254 0.254,0.6096 0,0.4572 -0.6096,0.8128 -0.6096,0.3048 -1.4224,0.3048 -1.27,0 -2.1336,-0.1524 -0.8636,-0.2032 -1.8288,-1.3716 -0.9144,-1.2192 -0.9144,-3.9116 l 0,-18.186403 -4.1656,0 q -0.3556,0 -0.6604,-0.3048 -0.3048,-0.3048 -0.3048,-0.6604 0,-0.4064 0.254,-0.6604 0.3048,-0.3048 0.7112,-0.3048 l 4.1656,0 0,-6.4516 q 0,-0.4064 0.3048,-0.7112 0.3048,-0.3048 0.7112,-0.3048 0.4572,0 0.7112,0.3048 0.3048,0.3048 0.3048,0.7112 l 0,6.4516 5.588,0 z"
             style="font-style:normal;font-variant:normal;font-weight:300;font-stretch:normal;font-family:Quicksand;-inkscape-font-specification:'Quicksand Light';letter-spacing:-3.38666677px"
             id="path3598"
             inkscape:connector-curvature="0" />
          <path
             d="m 138.24293,89.283867 q 4.3688,0 6.7056,2.794 2.3368,2.7432 2.3368,7.010399 l 0,14.833604 q 0,0.4064 -0.3048,0.7112 -0.3048,0.3048 -0.7112,0.3048 -0.4572,0 -0.762,-0.3048 -0.254,-0.3048 -0.254,-0.7112 l 0,-14.833604 q 0,-3.505199 -1.7272,-5.689599 -1.7272,-2.1844 -5.2832,-2.1844 -2.1844,0 -4.318,1.0668 -2.0828,1.0668 -3.4036,2.8956 -1.3208,1.828799 -1.3208,3.911599 l 0,14.833604 q 0,0.4064 -0.3048,0.7112 -0.3048,0.3048 -0.7112,0.3048 -0.4572,0 -0.762,-0.3048 -0.254,-0.3048 -0.254,-0.7112 l 0,-35.560003 q 0,-0.4064 0.3048,-0.7112 0.3048,-0.3048 0.7112,-0.3048 0.4572,0 0.7112,0.3048 0.3048,0.3048 0.3048,0.7112 l 0,16.0528 q 1.4224,-2.2352 3.9116,-3.6576 2.54,-1.4732 5.1308,-1.4732 z"
             style="font-style:normal;font-variant:normal;font-weight:300;font-stretch:normal;font-family:Quicksand;-inkscape-font-specification:'Quicksand Light';letter-spacing:-3.38666677px"
             id="path3600"
             inkscape:connector-curvature="0" />
          <path
             d="m 154.38886,113.92187 q 0,0.4064 -0.3048,0.7112 -0.3048,0.3048 -0.7112,0.3048 -0.4572,0 -0.762,-0.3048 -0.254,-0.3048 -0.254,-0.7112 l 0,-24.130003 q 0,-0.4064 0.3048,-0.7112 0.3048,-0.3048 0.7112,-0.3048 0.4572,0 0.7112,0.3048 0.3048,0.3048 0.3048,0.7112 l 0,24.130003 z m -1.9304,-26.720803 q -0.254,0 -0.4064,-0.1524 -0.1524,-0.2032 -0.1524,-0.4572 0,-0.254 0.254,-0.6604 l 3.1496,-4.7244 q 0.4572,-0.8128 1.3208,-0.8128 0.5588,0 0.9144,0.3556 0.4064,0.3048 0.4064,0.9144 0,0.4064 -0.3556,0.8636 l -3.81,3.9116 q -0.762,0.762 -1.3208,0.762 z"
             style="font-style:normal;font-variant:normal;font-weight:300;font-stretch:normal;font-family:Quicksand;-inkscape-font-specification:'Quicksand Light';letter-spacing:-3.38666677px"
             id="path3602"
             inkscape:connector-curvature="0" />
          <path
             d="m 170.41176,88.775867 q 2.1844,0 4.2164,0.508 2.0828,0.508 3.302,1.3716 1.27,0.8128 1.27,1.7272 0,0.4064 -0.3048,0.7112 -0.254,0.3048 -0.6604,0.3048 -0.4572,0 -0.7112,-0.1524 -0.2032,-0.1524 -0.6096,-0.5588 -0.6604,-0.762 -1.3716,-1.1176 -1.8288,-0.8636 -5.1816,-0.8636 -2.8956,0 -5.3848,1.524 -2.4384,1.524 -3.9116,4.165599 -1.4224,2.5908 -1.4224,5.689604 0,3.2512 1.3208,5.8928 1.3716,2.5908 3.81,4.064 2.4892,1.4732 5.588,1.4732 2.032,0 3.2004,-0.3556 1.1684,-0.3556 2.3368,-1.016 0.8128,-0.508 1.4224,-1.1176 0.254,-0.254 0.508,-0.4064 0.254,-0.2032 0.508,-0.2032 0.4064,0 0.6096,0.254 0.254,0.254 0.254,0.6604 0,0.7112 -1.1684,1.7272 -1.1684,0.9652 -3.2512,1.6764 -2.032,0.7112 -4.572,0.7112 -3.6576,0 -6.5532,-1.7272 -2.8448,-1.7272 -4.4704,-4.7752 -1.5748,-3.048 -1.5748,-6.858 0,-3.556004 1.5748,-6.604003 1.6256,-3.048 4.5212,-4.8768 2.9464,-1.8288 6.7056,-1.8288 z"
             style="font-style:normal;font-variant:normal;font-weight:300;font-stretch:normal;font-family:Quicksand;-inkscape-font-specification:'Quicksand Light';letter-spacing:-3.38666677px"
             id="path3604"
             inkscape:connector-curvature="0" />
          <path
             d="m 193.17042,89.283867 q 4.3688,0 6.7056,2.794 2.3368,2.7432 2.3368,7.010399 l 0,14.833604 q 0,0.4064 -0.3048,0.7112 -0.3048,0.3048 -0.7112,0.3048 -0.4572,0 -0.762,-0.3048 -0.254,-0.3048 -0.254,-0.7112 l 0,-14.833604 q 0,-3.505199 -1.7272,-5.689599 -1.7272,-2.1844 -5.2832,-2.1844 -2.1844,0 -4.318,1.0668 -2.0828,1.0668 -3.4036,2.8956 -1.3208,1.828799 -1.3208,3.911599 l 0,14.833604 q 0,0.4064 -0.3048,0.7112 -0.3048,0.3048 -0.7112,0.3048 -0.4572,0 -0.762,-0.3048 -0.254,-0.3048 -0.254,-0.7112 l 0,-35.560003 q 0,-0.4064 0.3048,-0.7112 0.3048,-0.3048 0.7112,-0.3048 0.4572,0 0.7112,0.3048 0.3048,0.3048 0.3048,0.7112 l 0,16.0528 q 1.4224,-2.2352 3.9116,-3.6576 2.54,-1.4732 5.1308,-1.4732 z"
             style="font-style:normal;font-variant:normal;font-weight:300;font-stretch:normal;font-family:Quicksand;-inkscape-font-specification:'Quicksand Light';letter-spacing:-3.38666677px"
             id="path3606"
             inkscape:connector-curvature="0" />
        </g>
        <g
           style="font-style:normal;font-weight:normal;font-size:50.79999924px;line-height:125%;font-family:sans-serif;letter-spacing:0.04325238px;word-spacing:0px;fill:#000000;fill-opacity:1;stroke:none;stroke-width:1px;stroke-linecap:butt;stroke-linejoin:miter;stroke-opacity:1"
           id="text3480">
          <path
             d="m 230.63029,87.419923 -2.4384,0 0,27.635197 -3.556,0 -0.3048,-2.54 q -1.6764,1.5748 -3.7084,2.3368 -1.9812,0.7112 -4.6736,0.7112 -5.2832,0 -8.0772,-2.8956 -2.794,-2.9464 -2.794,-9.2964 0,-6.349997 2.9464,-9.601197 2.9464,-3.302 8.1788,-3.302 2.3368,0 4.2164,0.5588 1.8796,0.5588 3.6068,1.7272 l 0,-5.334 -9.398,0 0,-3.302 9.398,0 0,-3.302 4.1656,0 0,3.302 2.4384,0 0,3.302 z m -6.604,8.7884 q -2.6924,-2.3876 -6.9088,-2.3876 -4.064,0 -5.9944,2.3368 -1.8796,2.286 -1.8796,7.213597 0,4.7244 1.778,6.8072 1.778,2.032 5.9944,2.032 4.318,0 7.0104,-2.8956 l 0,-13.106397 z"
             style="font-style:normal;font-variant:normal;font-weight:300;font-stretch:normal;font-family:Kanit;-inkscape-font-specification:'Kanit Light';letter-spacing:0.04325238px"
             id="path3609"
             inkscape:connector-curvature="0" />
          <path
             d="m 245.43808,90.467923 q 12.0396,0 12.0396,12.547597 0,6.2484 -2.9464,9.398 -2.8956,3.1496 -9.0932,3.1496 -6.1976,0 -9.144,-3.1496 -2.8956,-3.1496 -2.8956,-9.398 0,-12.547597 12.0396,-12.547597 z m 0,21.539197 q 4.2672,0 6.0452,-2.1336 1.8288,-2.1336 1.8288,-6.858 0,-4.724397 -1.8288,-6.857997 -1.8288,-2.1336 -6.0452,-2.1336 -4.2164,0 -6.0452,2.1336 -1.8288,2.1336 -1.8288,6.857997 0,4.7244 1.778,6.858 1.8288,2.1336 6.096,2.1336 z m -2.032,7.4676 4.064,0 0,3.9116 -4.064,0 0,-3.9116 z"
             style="font-style:normal;font-variant:normal;font-weight:300;font-stretch:normal;font-family:Kanit;-inkscape-font-specification:'Kanit Light';letter-spacing:0.04325238px"
             id="path3611"
             inkscape:connector-curvature="0" />
          <path
             d="m 280.63811,114.24232 q -3.2004,1.3208 -7.4168,1.3208 -6.1976,0 -9.2964,-3.2004 -3.0988,-3.2512 -3.0988,-9.3472 0,-6.197597 3.3528,-9.347197 3.4036,-3.2004 9.398,-3.2004 2.286,0 3.8608,0.3556 1.5748,0.3048 3.1496,1.016 l 0,3.302 q -2.7432,-1.3208 -6.2484,-1.3208 -4.6228,0 -7.0104,2.1844 -2.3368,2.1844 -2.3368,7.010397 0,4.826 2.1336,7.0104 2.1336,2.1844 7.0612,2.1844 3.5052,0 6.4516,-1.3208 l 0,3.3528 z"
             style="font-style:normal;font-variant:normal;font-weight:300;font-stretch:normal;font-family:Kanit;-inkscape-font-specification:'Kanit Light';letter-spacing:0.04325238px"
             id="path3613"
             inkscape:connector-curvature="0" />
        </g>
      </g>
    </g>
    <g
       id="g3435"
       transform="matrix(0.32076949,0,0,0.32076949,29.456362,71.928882)">
      <g
         transform="translate(-245.90765,-115.4068)"
         style="display:inline"
         inkscape:label="polygon"
         id="layer1-3" />
      <g
         transform="translate(-245.90765,-115.4068)"
         style="display:none"
         inkscape:label="shapes"
         id="layer2" />
      <g
         transform="translate(-126.23501,-58.766587)"
         id="g5029">
        <path
           sodipodi:type="inkscape:offset"
           inkscape:radius="19.037939"
           inkscape:original="M 581.75 181.14258 L 484.42188 236.46289 L 483.66602 348.41211 L 580.23828 405.04102 L 677.56641 349.7207 L 678.32227 237.77148 L 581.75 181.14258 z "
           style="display:inline;fill:#f14f4a;fill-opacity:1;stroke:none;stroke-opacity:1"
           id="path4898"
           d="m 582.32617,162.11328 a 19.039843,19.039843 0 0 0 -9.98437,2.47852 l -97.32813,55.32031 a 19.039843,19.039843 0 0 0 -9.6289,16.42187 l -0.75586,111.94922 a 19.039843,19.039843 0 0 0 9.40625,16.55078 l 96.57226,56.62891 a 19.039843,19.039843 0 0 0 19.03906,0.12891 l 97.32813,-55.32032 a 19.039843,19.039843 0 0 0 9.62891,-16.42187 l 0.75586,-111.94922 a 19.039843,19.039843 0 0 0 -9.40626,-16.55078 L 591.38086,164.7207 a 19.039843,19.039843 0 0 0 -9.05469,-2.60742 z"
           transform="matrix(0.83173404,0,0,0.83414528,-260.21231,-76.452183)" />
        <path
           style="fill:none;fill-rule:evenodd;stroke:#ffffff;stroke-width:7;stroke-linecap:round;stroke-linejoin:round;stroke-miterlimit:4;stroke-dasharray:none;stroke-opacity:1"
           d="m 181.05193,190.3738 -1e-5,-76.15301 42.54559,22.88166 41.83053,-21.09403 -0.35753,86.16374 -78.6557,-0.35752 c -8.46726,6.61352 -6.75162,13.30197 -0.71505,20.02145 l 79.37075,0"
           id="path3945"
           inkscape:connector-curvature="0"
           sodipodi:nodetypes="cccccccc" />
        <path
           style="fill:#ffffff;fill-opacity:1;fill-rule:evenodd;stroke:none;stroke-width:1px;stroke-linecap:butt;stroke-linejoin:miter;stroke-opacity:1"
           d="m 193.54325,209.77377 0,31.0622 8.8704,-8.87041 8.99667,8.99667 0,-31.25159 z"
           id="path5027"
           inkscape:connector-curvature="0" />
      </g>
    </g>
  </g>
  <g
     inkscape:groupmode="layer"
     id="layer3"
     inkscape:label="text"
     transform="translate(-29.456363,-71.469252)" />
</svg>
