<?xml version="1.0" standalone="no"?>
<!DOCTYPE svg PUBLIC "-//W3C//DTD SVG 20010904//EN"
 "http://www.w3.org/TR/2001/REC-SVG-20010904/DTD/svg10.dtd">
<svg version="1.0" xmlns="http://www.w3.org/2000/svg"
 width="16.000000pt" height="16.000000pt" viewBox="0 0 16.000000 16.000000"
 preserveAspectRatio="xMidYMid meet">
<metadata>
Created by potrace 1.11, written by Peter Selinger 2001-2013
</metadata>
<g transform="translate(0.000000,16.000000) scale(0.001384,-0.001384)"
fill="#000000" stroke="none">
<path d="M5705 11554 c-11 -2 -51 -12 -90 -20 -38 -9 -99 -29 -133 -45 -35
-16 -1045 -588 -2244 -1271 -1452 -828 -2201 -1261 -2244 -1296 -126 -103
-231 -271 -275 -437 -27 -104 -26 -8 -45 -2860 -11 -1661 -12 -2360 -4 -2407
46 -288 185 -474 490 -654 845 -499 4196 -2467 4227 -2483 23 -11 81 -33 130
-47 76 -23 106 -27 223 -28 160 0 230 15 365 79 139 66 4361 2477 4435 2532
136 102 254 283 301 458 27 103 26 0 45 2870 11 1724 12 2349 4 2400 -20 123
-69 250 -133 345 -46 67 -154 177 -217 220 -60 41 -4299 2534 -4367 2568 -86
44 -212 73 -333 77 -63 2 -124 2 -135 -1z m-1100 -3278 c539 -291 1029 -554
1089 -587 60 -32 114 -59 119 -59 5 0 492 243 1081 539 589 296 1085 542 1103
546 73 15 166 -39 197 -115 14 -37 15 -243 5 -2353 -10 -2303 -10 -2312 -31
-2355 -12 -26 -36 -54 -61 -70 l-41 -27 -1545 2 c-850 2 -1785 6 -2077 9
l-532 6 -61 -63 c-70 -72 -119 -161 -127 -234 -12 -95 34 -218 127 -342 l40
-53 164 0 165 0 0 225 0 225 475 0 475 0 0 -225 0 -225 1433 0 c1363 0 1434
-1 1472 -19 145 -65 152 -262 13 -330 l-44 -21 -1437 0 -1437 0 0 -410 c0
-225 -3 -410 -7 -410 -5 0 -113 105 -240 232 l-233 233 -235 -235 -235 -235 0
413 0 412 -227 0 c-276 0 -280 2 -375 118 -287 357 -341 670 -166 965 77 132
251 305 334 334 27 9 421 10 1767 3 952 -5 1852 -10 1998 -10 l267 0 6 1198
c3 658 8 1574 10 2035 l5 837 -996 -501 c-963 -485 -997 -501 -1042 -497 -39
4 -224 100 -1045 541 -549 296 -1000 537 -1002 537 -2 0 -5 -845 -6 -1877 l-3
-1878 -21 -40 c-11 -22 -40 -53 -63 -70 -35 -25 -52 -30 -101 -30 -49 0 -66 5
-101 30 -23 17 -52 48 -63 70 l-21 40 0 2050 c0 1128 3 2062 8 2077 10 37 64
98 102 115 18 8 52 12 85 10 51 -4 131 -45 1035 -531z"/>
</g>
</svg>
